<mxfile host="app.diagrams.net" modified="2021-10-28T03:27:56.588Z" agent="5.0 (Windows NT 10.0; Win64; x64) AppleWebKit/537.36 (KHTML, like Gecko) Chrome/92.0.4515.131 Safari/537.36" etag="1IoTlzpSJPAx0nnSyD-U" version="15.5.1" type="github">
  <diagram id="C5RBs43oDa-KdzZeNtuy" name="Page-1">
    <mxGraphModel dx="971" dy="402" grid="1" gridSize="10" guides="1" tooltips="1" connect="1" arrows="1" fold="1" page="1" pageScale="1" pageWidth="827" pageHeight="1169" math="0" shadow="0">
      <root>
        <mxCell id="WIyWlLk6GJQsqaUBKTNV-0" />
        <mxCell id="WIyWlLk6GJQsqaUBKTNV-1" parent="WIyWlLk6GJQsqaUBKTNV-0" />
        <mxCell id="0pTE4StGaYjbseL08kbQ-3" style="edgeStyle=orthogonalEdgeStyle;rounded=0;orthogonalLoop=1;jettySize=auto;html=1;exitX=0.5;exitY=1;exitDx=0;exitDy=0;" edge="1" parent="WIyWlLk6GJQsqaUBKTNV-1" source="0pTE4StGaYjbseL08kbQ-0" target="0pTE4StGaYjbseL08kbQ-1">
          <mxGeometry relative="1" as="geometry" />
        </mxCell>
        <mxCell id="0pTE4StGaYjbseL08kbQ-0" value="ReactRootFiber" style="rounded=1;whiteSpace=wrap;html=1;" vertex="1" parent="WIyWlLk6GJQsqaUBKTNV-1">
          <mxGeometry x="80" y="10" width="120" height="20" as="geometry" />
        </mxCell>
        <mxCell id="0pTE4StGaYjbseL08kbQ-8" style="edgeStyle=orthogonalEdgeStyle;rounded=0;orthogonalLoop=1;jettySize=auto;html=1;entryX=0;entryY=0.5;entryDx=0;entryDy=0;" edge="1" parent="WIyWlLk6GJQsqaUBKTNV-1" source="0pTE4StGaYjbseL08kbQ-1" target="0pTE4StGaYjbseL08kbQ-5">
          <mxGeometry relative="1" as="geometry" />
        </mxCell>
        <mxCell id="0pTE4StGaYjbseL08kbQ-1" value="FiberRoot" style="rounded=1;whiteSpace=wrap;html=1;" vertex="1" parent="WIyWlLk6GJQsqaUBKTNV-1">
          <mxGeometry x="80" y="80" width="120" height="20" as="geometry" />
        </mxCell>
        <mxCell id="0pTE4StGaYjbseL08kbQ-4" value="current" style="text;html=1;align=center;verticalAlign=middle;resizable=0;points=[];autosize=1;strokeColor=none;fillColor=none;" vertex="1" parent="WIyWlLk6GJQsqaUBKTNV-1">
          <mxGeometry x="150" y="50" width="50" height="20" as="geometry" />
        </mxCell>
        <mxCell id="0pTE4StGaYjbseL08kbQ-7" style="edgeStyle=orthogonalEdgeStyle;rounded=0;orthogonalLoop=1;jettySize=auto;html=1;exitX=0.5;exitY=1;exitDx=0;exitDy=0;entryX=0.5;entryY=0;entryDx=0;entryDy=0;" edge="1" parent="WIyWlLk6GJQsqaUBKTNV-1" source="0pTE4StGaYjbseL08kbQ-5" target="0pTE4StGaYjbseL08kbQ-6">
          <mxGeometry relative="1" as="geometry" />
        </mxCell>
        <mxCell id="0pTE4StGaYjbseL08kbQ-5" value="workInProgress&amp;nbsp;" style="rounded=1;whiteSpace=wrap;html=1;" vertex="1" parent="WIyWlLk6GJQsqaUBKTNV-1">
          <mxGeometry x="270" y="80" width="160" height="20" as="geometry" />
        </mxCell>
        <mxCell id="0pTE4StGaYjbseL08kbQ-12" style="edgeStyle=orthogonalEdgeStyle;rounded=0;orthogonalLoop=1;jettySize=auto;html=1;exitX=0.5;exitY=1;exitDx=0;exitDy=0;entryX=0.5;entryY=0;entryDx=0;entryDy=0;" edge="1" parent="WIyWlLk6GJQsqaUBKTNV-1" source="0pTE4StGaYjbseL08kbQ-6" target="0pTE4StGaYjbseL08kbQ-10">
          <mxGeometry relative="1" as="geometry" />
        </mxCell>
        <mxCell id="0pTE4StGaYjbseL08kbQ-6" value="App" style="rounded=1;whiteSpace=wrap;html=1;" vertex="1" parent="WIyWlLk6GJQsqaUBKTNV-1">
          <mxGeometry x="270" y="140" width="160" height="20" as="geometry" />
        </mxCell>
        <mxCell id="0pTE4StGaYjbseL08kbQ-9" value="alternate" style="text;html=1;align=center;verticalAlign=middle;resizable=0;points=[];autosize=1;strokeColor=none;fillColor=none;" vertex="1" parent="WIyWlLk6GJQsqaUBKTNV-1">
          <mxGeometry x="210" y="70" width="60" height="20" as="geometry" />
        </mxCell>
        <mxCell id="0pTE4StGaYjbseL08kbQ-14" style="edgeStyle=orthogonalEdgeStyle;rounded=0;orthogonalLoop=1;jettySize=auto;html=1;entryX=0.5;entryY=0;entryDx=0;entryDy=0;" edge="1" parent="WIyWlLk6GJQsqaUBKTNV-1" source="0pTE4StGaYjbseL08kbQ-10" target="0pTE4StGaYjbseL08kbQ-13">
          <mxGeometry relative="1" as="geometry" />
        </mxCell>
        <mxCell id="0pTE4StGaYjbseL08kbQ-10" value="div" style="rounded=1;whiteSpace=wrap;html=1;" vertex="1" parent="WIyWlLk6GJQsqaUBKTNV-1">
          <mxGeometry x="270" y="190" width="160" height="20" as="geometry" />
        </mxCell>
        <mxCell id="0pTE4StGaYjbseL08kbQ-18" style="edgeStyle=orthogonalEdgeStyle;rounded=0;orthogonalLoop=1;jettySize=auto;html=1;exitX=0.75;exitY=0;exitDx=0;exitDy=0;" edge="1" parent="WIyWlLk6GJQsqaUBKTNV-1" source="0pTE4StGaYjbseL08kbQ-13">
          <mxGeometry relative="1" as="geometry">
            <mxPoint x="420" y="220" as="targetPoint" />
          </mxGeometry>
        </mxCell>
        <mxCell id="0pTE4StGaYjbseL08kbQ-22" style="edgeStyle=orthogonalEdgeStyle;rounded=0;orthogonalLoop=1;jettySize=auto;html=1;exitX=0.5;exitY=1;exitDx=0;exitDy=0;entryX=0.5;entryY=0;entryDx=0;entryDy=0;" edge="1" parent="WIyWlLk6GJQsqaUBKTNV-1" source="0pTE4StGaYjbseL08kbQ-13" target="0pTE4StGaYjbseL08kbQ-21">
          <mxGeometry relative="1" as="geometry" />
        </mxCell>
        <mxCell id="0pTE4StGaYjbseL08kbQ-24" style="edgeStyle=orthogonalEdgeStyle;rounded=0;orthogonalLoop=1;jettySize=auto;html=1;entryX=0;entryY=0.5;entryDx=0;entryDy=0;" edge="1" parent="WIyWlLk6GJQsqaUBKTNV-1" source="0pTE4StGaYjbseL08kbQ-13" target="0pTE4StGaYjbseL08kbQ-23">
          <mxGeometry relative="1" as="geometry" />
        </mxCell>
        <mxCell id="0pTE4StGaYjbseL08kbQ-13" value="&lt;font color=&quot;#66d9ef&quot;&gt;&lt;i&gt;MessageList&lt;/i&gt;&lt;/font&gt;" style="rounded=1;whiteSpace=wrap;html=1;" vertex="1" parent="WIyWlLk6GJQsqaUBKTNV-1">
          <mxGeometry x="270" y="260" width="160" height="20" as="geometry" />
        </mxCell>
        <mxCell id="0pTE4StGaYjbseL08kbQ-15" value="child" style="text;html=1;align=center;verticalAlign=middle;resizable=0;points=[];autosize=1;strokeColor=none;fillColor=none;" vertex="1" parent="WIyWlLk6GJQsqaUBKTNV-1">
          <mxGeometry x="364" y="110" width="40" height="20" as="geometry" />
        </mxCell>
        <mxCell id="0pTE4StGaYjbseL08kbQ-16" value="child" style="text;html=1;align=center;verticalAlign=middle;resizable=0;points=[];autosize=1;strokeColor=none;fillColor=none;" vertex="1" parent="WIyWlLk6GJQsqaUBKTNV-1">
          <mxGeometry x="364" y="170" width="40" height="20" as="geometry" />
        </mxCell>
        <mxCell id="0pTE4StGaYjbseL08kbQ-17" value="child" style="text;html=1;align=center;verticalAlign=middle;resizable=0;points=[];autosize=1;strokeColor=none;fillColor=none;" vertex="1" parent="WIyWlLk6GJQsqaUBKTNV-1">
          <mxGeometry x="350" y="227" width="40" height="20" as="geometry" />
        </mxCell>
        <mxCell id="0pTE4StGaYjbseL08kbQ-19" value="return" style="text;html=1;align=center;verticalAlign=middle;resizable=0;points=[];autosize=1;strokeColor=none;fillColor=none;" vertex="1" parent="WIyWlLk6GJQsqaUBKTNV-1">
          <mxGeometry x="425" y="227" width="50" height="20" as="geometry" />
        </mxCell>
        <mxCell id="0pTE4StGaYjbseL08kbQ-26" style="edgeStyle=orthogonalEdgeStyle;rounded=0;orthogonalLoop=1;jettySize=auto;html=1;exitX=0.5;exitY=1;exitDx=0;exitDy=0;entryX=0.5;entryY=0;entryDx=0;entryDy=0;" edge="1" parent="WIyWlLk6GJQsqaUBKTNV-1" source="0pTE4StGaYjbseL08kbQ-21" target="0pTE4StGaYjbseL08kbQ-25">
          <mxGeometry relative="1" as="geometry" />
        </mxCell>
        <mxCell id="0pTE4StGaYjbseL08kbQ-32" style="edgeStyle=orthogonalEdgeStyle;rounded=0;orthogonalLoop=1;jettySize=auto;html=1;exitX=0.25;exitY=0;exitDx=0;exitDy=0;entryX=0.25;entryY=1;entryDx=0;entryDy=0;" edge="1" parent="WIyWlLk6GJQsqaUBKTNV-1" source="0pTE4StGaYjbseL08kbQ-21" target="0pTE4StGaYjbseL08kbQ-13">
          <mxGeometry relative="1" as="geometry" />
        </mxCell>
        <mxCell id="0pTE4StGaYjbseL08kbQ-21" value="&lt;font color=&quot;#66d9ef&quot;&gt;&lt;i&gt;div&lt;/i&gt;&lt;/font&gt;" style="rounded=1;whiteSpace=wrap;html=1;" vertex="1" parent="WIyWlLk6GJQsqaUBKTNV-1">
          <mxGeometry x="270" y="300" width="160" height="20" as="geometry" />
        </mxCell>
        <mxCell id="0pTE4StGaYjbseL08kbQ-36" style="edgeStyle=orthogonalEdgeStyle;rounded=0;orthogonalLoop=1;jettySize=auto;html=1;exitX=0.5;exitY=0;exitDx=0;exitDy=0;entryX=1;entryY=0.75;entryDx=0;entryDy=0;" edge="1" parent="WIyWlLk6GJQsqaUBKTNV-1" source="0pTE4StGaYjbseL08kbQ-23" target="0pTE4StGaYjbseL08kbQ-10">
          <mxGeometry relative="1" as="geometry" />
        </mxCell>
        <mxCell id="0pTE4StGaYjbseL08kbQ-23" value="&lt;font color=&quot;#66d9ef&quot;&gt;&lt;i&gt;div&lt;/i&gt;&lt;/font&gt;" style="rounded=1;whiteSpace=wrap;html=1;" vertex="1" parent="WIyWlLk6GJQsqaUBKTNV-1">
          <mxGeometry x="490" y="260" width="160" height="20" as="geometry" />
        </mxCell>
        <mxCell id="0pTE4StGaYjbseL08kbQ-28" style="edgeStyle=orthogonalEdgeStyle;rounded=0;orthogonalLoop=1;jettySize=auto;html=1;entryX=0;entryY=0.5;entryDx=0;entryDy=0;" edge="1" parent="WIyWlLk6GJQsqaUBKTNV-1" source="0pTE4StGaYjbseL08kbQ-25" target="0pTE4StGaYjbseL08kbQ-27">
          <mxGeometry relative="1" as="geometry" />
        </mxCell>
        <mxCell id="0pTE4StGaYjbseL08kbQ-33" style="edgeStyle=orthogonalEdgeStyle;rounded=0;orthogonalLoop=1;jettySize=auto;html=1;exitX=0.25;exitY=0;exitDx=0;exitDy=0;entryX=0.25;entryY=1;entryDx=0;entryDy=0;" edge="1" parent="WIyWlLk6GJQsqaUBKTNV-1" source="0pTE4StGaYjbseL08kbQ-25" target="0pTE4StGaYjbseL08kbQ-21">
          <mxGeometry relative="1" as="geometry" />
        </mxCell>
        <mxCell id="0pTE4StGaYjbseL08kbQ-25" value="&lt;font color=&quot;#66d9ef&quot;&gt;&lt;i&gt;div&lt;/i&gt;&lt;/font&gt;" style="rounded=1;whiteSpace=wrap;html=1;" vertex="1" parent="WIyWlLk6GJQsqaUBKTNV-1">
          <mxGeometry x="270" y="360" width="130" height="20" as="geometry" />
        </mxCell>
        <mxCell id="0pTE4StGaYjbseL08kbQ-39" style="edgeStyle=orthogonalEdgeStyle;rounded=0;orthogonalLoop=1;jettySize=auto;html=1;exitX=0.5;exitY=0;exitDx=0;exitDy=0;entryX=1;entryY=0.25;entryDx=0;entryDy=0;" edge="1" parent="WIyWlLk6GJQsqaUBKTNV-1" source="0pTE4StGaYjbseL08kbQ-27" target="0pTE4StGaYjbseL08kbQ-21">
          <mxGeometry relative="1" as="geometry" />
        </mxCell>
        <mxCell id="0pTE4StGaYjbseL08kbQ-27" value="&lt;font color=&quot;#66d9ef&quot;&gt;&lt;i&gt;div&lt;/i&gt;&lt;/font&gt;" style="rounded=1;whiteSpace=wrap;html=1;" vertex="1" parent="WIyWlLk6GJQsqaUBKTNV-1">
          <mxGeometry x="470" y="360" width="160" height="20" as="geometry" />
        </mxCell>
        <mxCell id="0pTE4StGaYjbseL08kbQ-29" value="child" style="text;html=1;align=center;verticalAlign=middle;resizable=0;points=[];autosize=1;strokeColor=none;fillColor=none;" vertex="1" parent="WIyWlLk6GJQsqaUBKTNV-1">
          <mxGeometry x="350" y="280" width="40" height="20" as="geometry" />
        </mxCell>
        <mxCell id="0pTE4StGaYjbseL08kbQ-30" value="child" style="text;html=1;align=center;verticalAlign=middle;resizable=0;points=[];autosize=1;strokeColor=none;fillColor=none;" vertex="1" parent="WIyWlLk6GJQsqaUBKTNV-1">
          <mxGeometry x="360" y="330" width="40" height="20" as="geometry" />
        </mxCell>
        <mxCell id="0pTE4StGaYjbseL08kbQ-34" value="return" style="text;html=1;align=center;verticalAlign=middle;resizable=0;points=[];autosize=1;strokeColor=none;fillColor=none;" vertex="1" parent="WIyWlLk6GJQsqaUBKTNV-1">
          <mxGeometry x="260" y="280" width="50" height="20" as="geometry" />
        </mxCell>
        <mxCell id="0pTE4StGaYjbseL08kbQ-35" value="return" style="text;html=1;align=center;verticalAlign=middle;resizable=0;points=[];autosize=1;strokeColor=none;fillColor=none;" vertex="1" parent="WIyWlLk6GJQsqaUBKTNV-1">
          <mxGeometry x="240" y="330" width="50" height="20" as="geometry" />
        </mxCell>
        <mxCell id="0pTE4StGaYjbseL08kbQ-37" value="return" style="text;html=1;align=center;verticalAlign=middle;resizable=0;points=[];autosize=1;strokeColor=none;fillColor=none;" vertex="1" parent="WIyWlLk6GJQsqaUBKTNV-1">
          <mxGeometry x="490" y="180" width="50" height="20" as="geometry" />
        </mxCell>
        <mxCell id="0pTE4StGaYjbseL08kbQ-38" value="return" style="text;html=1;align=center;verticalAlign=middle;resizable=0;points=[];autosize=1;strokeColor=none;fillColor=none;" vertex="1" parent="WIyWlLk6GJQsqaUBKTNV-1">
          <mxGeometry x="490" y="310" width="50" height="20" as="geometry" />
        </mxCell>
      </root>
    </mxGraphModel>
  </diagram>
</mxfile>
